<svg width="24" height="24" viewBox="0 0 24 24" fill="none" xmlns="http://www.w3.org/2000/svg">
<g id="ic_public_origin">
<g id="_ic_gallery_frame_overlay_rectify">
<path id="_&#229;&#189;&#162;&#231;&#138;&#182;&#231;&#187;&#147;&#229;&#144;&#136;" d="M20 2C21.1046 2 22 2.89543 22 4C22 4.84088 21.4811 5.56056 20.746 5.85625L20.75 6V18L20.746 18.1438C21.4811 18.4394 22 19.1591 22 20C22 21.1046 21.1046 22 20 22C19.1591 22 18.4394 21.4811 18.1438 20.746L18 20.75H6L5.85625 20.746C5.56056 21.4811 4.84088 22 4 22C2.89543 22 2 21.1046 2 20C2 19.1591 2.51894 18.4394 3.25403 18.1438L3.25 18V6L3.25403 5.85625C2.51894 5.56056 2 4.84088 2 4C2 2.89543 2.89543 2 4 2C4.84088 2 5.56056 2.51894 5.85625 3.25403L6 3.25H18L18.1438 3.25403C18.4394 2.51894 19.1591 2 20 2ZM18 4.75H6C5.94885 4.75 5.89842 4.75307 5.84888 4.75904C5.64731 5.25354 5.25354 5.64731 4.76101 5.85012C4.75811 5.85663 4.75725 5.8644 4.75645 5.87219L4.75 6V18C4.75 18.0512 4.75307 18.1016 4.75904 18.1511C5.25354 18.3527 5.64731 18.7465 5.85012 19.239C5.85663 19.2419 5.8644 19.2428 5.87219 19.2435L6 19.25H18C18.0512 19.25 18.1016 19.2469 18.1511 19.241C18.3527 18.7465 18.7465 18.3527 19.239 18.1499C19.2419 18.1434 19.2428 18.1356 19.2435 18.1278L19.25 18V6C19.25 5.94885 19.2469 5.89842 19.241 5.84888C18.7465 5.64731 18.3527 5.25354 18.1499 4.76101C18.1016 4.75307 18.0512 4.75 18 4.75Z" fill="white"/>
</g>
</g>
</svg>
