<svg width="24" height="24" viewBox="0 0 24 24" fill="none" xmlns="http://www.w3.org/2000/svg">
<g id="ic_public_save">
<path id="Rectangle 2377" d="M18 21.25H6C4.20507 21.25 2.75 19.7949 2.75 18V6C2.75 4.20508 4.20508 2.75 6 2.75H15.1265C16.091 2.75 17.0057 3.17842 17.6232 3.9194L20.4967 7.3676C20.9834 7.95167 21.25 8.68791 21.25 9.4482V18C21.25 19.7949 19.7949 21.25 18 21.25Z" stroke="white" stroke-width="1.5"/>
<path id="Rectangle 2378" d="M7.8 4C7.8 3.33726 8.33726 2.8 9 2.8H15C15.6627 2.8 16.2 3.33726 16.2 4V7C16.2 7.66274 15.6627 8.2 15 8.2H9C8.33726 8.2 7.8 7.66274 7.8 7V4Z" stroke="white" stroke-width="1.6"/>
<path id="Rectangle 2379" d="M5.8 15C5.8 14.3373 6.33726 13.8 7 13.8H17C17.6627 13.8 18.2 14.3373 18.2 15V21C18.2 21.1105 18.1105 21.2 18 21.2H6C5.88954 21.2 5.8 21.1105 5.8 21V15Z" stroke="white" stroke-width="1.6"/>
</g>
</svg>
