<?xml version="1.0" encoding="UTF-8"?>
<svg width="40px" height="40px" viewBox="0 0 40 40" version="1.1" xmlns="http://www.w3.org/2000/svg" xmlns:xlink="http://www.w3.org/1999/xlink">
    <title>discover_shequ</title>
    <g id="页面-1" stroke="none" stroke-width="1" fill="none" fill-rule="evenodd">
        <g id="发现" transform="translate(-284.000000, -150.000000)">
            <g id="编组-6备份" transform="translate(12.000000, 136.000000)">
                <g id="discover_shequ" transform="translate(272.000000, 14.000000)">
                    <rect id="矩形备份-3" fill="#FF7500" x="0" y="0" width="40" height="40" rx="20"></rect>
                    <path d="M10.3616625,16.6556855 L13.5835746,16.2753197 C17.8510261,15.7715217 22.162286,15.7721311 26.4295971,16.2771358 L29.6386281,16.6569008 C30.4838596,16.7569398 31.0885927,17.5285415 30.9893359,18.3803333 C30.9477332,18.737355 30.7845108,19.0687737 30.5275093,19.3180595 C28.0629227,21.7086555 26.3751599,23.2429475 25.4642208,23.9209356 C24.2906924,24.7943621 22.4565638,25.9566778 19.9618353,27.4078828 C17.5674813,25.9815335 15.7695818,24.8192177 14.5681369,23.9209356 C13.6376286,23.2252241 11.9405072,21.6919712 9.47677257,19.3211766 C8.86126896,18.7288823 8.83874907,17.7458969 9.42647771,17.1256123 C9.67437747,16.8639807 10.0051364,16.6977756 10.3616625,16.6556855 Z" id="路径" fill-opacity="0.6" fill="#FFFFFF"></path>
                    <path d="M12.5535591,28.0877299 C13.3459272,24.6743487 14.1633075,21.7064553 15.0057002,19.1840498 C15.8624983,16.6185095 17.071102,13.8347135 18.6315113,10.8326617 L18.6315124,10.8326623 C19.0264069,10.0729297 19.9576748,9.77965409 20.7115574,10.177613 C20.9808559,10.31977 21.2024126,10.5390252 21.348345,10.8077855 C22.9199631,13.7021971 24.1127654,16.4241554 24.926752,18.9736602 C25.743741,21.5325694 26.4895303,24.5933548 27.1641199,28.1560161 C27.32363,28.9984646 26.7752648,29.8117206 25.9393047,29.9724757 C25.6148356,30.034871 25.2790582,29.9905407 24.9814875,29.8460219 L19.9612537,27.4078828 L19.9612537,27.4078828 L14.6989524,29.8518174 C13.9260333,30.2107706 13.0107071,29.870331 12.654511,29.0914172 C12.5109574,28.7775004 12.4754312,28.4242911 12.5535591,28.0877299 Z" id="路径" fill-opacity="0.6" fill="#FFFFFF"></path>
                    <path d="M12.5535591,28.0877299 C13.3459272,24.6743487 14.1633075,21.7064553 15.0057002,19.1840498 C15.8624983,16.6185095 17.071102,13.8347135 18.6315113,10.8326617 L18.6315124,10.8326623 C19.0264069,10.0729297 19.9576748,9.77965409 20.7115574,10.177613 C20.9808559,10.31977 21.2024126,10.5390252 21.348345,10.8077855 C22.9199631,13.7021971 24.1127654,16.4241554 24.926752,18.9736602 C25.743741,21.5325694 26.4895303,24.5933548 27.1641199,28.1560161 C27.32363,28.9984646 26.7752648,29.8117206 25.9393047,29.9724757 C25.6148356,30.034871 25.2790582,29.9905407 24.9814875,29.8460219 L19.9612537,27.4078828 L19.9612537,27.4078828 L14.6989524,29.8518174 C13.9260333,30.2107706 13.0107071,29.870331 12.654511,29.0914172 C12.5109574,28.7775004 12.4754312,28.4242911 12.5535591,28.0877299 Z" id="路径" fill-opacity="0.6" fill="#FFFFFF"></path>
                    <path d="M12.5535591,28.0877299 C13.3459272,24.6743487 14.1633075,21.7064553 15.0057002,19.1840498 C15.8624983,16.6185095 17.071102,13.8347135 18.6315113,10.8326617 L18.6315124,10.8326623 C19.0264069,10.0729297 19.9576748,9.77965409 20.7115574,10.177613 C20.9808559,10.31977 21.2024126,10.5390252 21.348345,10.8077855 C22.9199631,13.7021971 24.1127654,16.4241554 24.926752,18.9736602 C25.743741,21.5325694 26.4895303,24.5933548 27.1641199,28.1560161 C27.32363,28.9984646 26.7752648,29.8117206 25.9393047,29.9724757 C25.6148356,30.034871 25.2790582,29.9905407 24.9814875,29.8460219 L19.9612537,27.4078828 L19.9612537,27.4078828 L14.6989524,29.8518174 C13.9260333,30.2107706 13.0107071,29.870331 12.654511,29.0914172 C12.5109574,28.7775004 12.4754312,28.4242911 12.5535591,28.0877299 Z" id="路径" fill-opacity="0.6" fill="#FFFFFF"></path>
                </g>
            </g>
        </g>
    </g>
</svg>