<?xml version="1.0" standalone="no"?><!DOCTYPE svg PUBLIC "-//W3C//DTD SVG 1.1//EN" "http://www.w3.org/Graphics/SVG/1.1/DTD/svg11.dtd"><svg t="1710665073428" class="icon" viewBox="0 0 1024 1024" version="1.1" xmlns="http://www.w3.org/2000/svg" p-id="13831" xmlns:xlink="http://www.w3.org/1999/xlink" width="200" height="200"><path d="M512 0c283.306667 0 512 228.693333 512 512s-228.693333 512-512 512S0 795.306667 0 512 228.693333 0 512 0z m-3.413333 679.253333c-37.546667 0-66.56 29.013333-66.56 64.853334s29.013333 64.853333 66.56 64.853333 66.56-29.013333 66.56-64.853333-29.013333-64.853333-66.56-64.853334zM512 220.16c-56.32 0-102.4 15.36-138.24 46.08-35.84 30.72-54.613333 73.386667-56.32 112.64-1.706667 39.253333 92.16 30.72 95.573333 11.946667 3.413333-20.48 18.773333-52.906667 37.546667-68.266667 17.066667-15.36 39.253333-22.186667 66.56-22.186667s49.493333 6.826667 64.853333 22.186667c15.36 13.653333 23.893333 32.426667 23.893334 51.2 0 15.36-5.12 27.306667-13.653334 39.253333-5.12 6.826667-23.893333 23.893333-54.613333 47.786667s-51.2 47.786667-61.44 66.56c-10.24 20.48-15.36 44.373333-15.36 75.093333v25.6H554.666667v-5.12c0-25.6 1.706667-44.373333 6.826666-54.613333 5.12-11.946667 18.773333-25.6 40.96-44.373333 42.666667-35.84 69.973333-63.146667 83.626667-83.626667 13.653333-20.48 18.773333-42.666667 18.773333-64.853333 0-40.96-17.066667-78.506667-52.906666-109.226667-32.426667-30.72-80.213333-46.08-139.946667-46.08z" fill="#52C0D6" p-id="13832"></path></svg>