<?xml version="1.0" standalone="no"?><!DOCTYPE svg PUBLIC "-//W3C//DTD SVG 1.1//EN" "http://www.w3.org/Graphics/SVG/1.1/DTD/svg11.dtd"><svg t="1708850050324" class="icon" viewBox="0 0 1024 1024" version="1.1" xmlns="http://www.w3.org/2000/svg" p-id="24350" xmlns:xlink="http://www.w3.org/1999/xlink" width="32" height="32"><path d="M921.54 853.333333H288a53.226667 53.226667 0 0 1-44.373333-23.746666l-192-288a53.206667 53.206667 0 0 1 0-59.173334l192-288A53.226667 53.226667 0 0 1 288 170.666667h633.54a53.393333 53.393333 0 0 1 53.333333 53.333333v576a53.393333 53.393333 0 0 1-53.333333 53.333333zM288 213.333333a10.666667 10.666667 0 0 0-8.873333 4.746667l-192 288a10.666667 10.666667 0 0 0 0 11.84l192 288A10.666667 10.666667 0 0 0 288 810.666667h633.54a10.666667 10.666667 0 0 0 10.666667-10.666667V224a10.666667 10.666667 0 0 0-10.666667-10.666667z m431.086667 420.42a21.333333 21.333333 0 0 0 0-30.173333L627.5 512l91.586667-91.58a21.333333 21.333333 0 1 0-30.173334-30.173333L597.333333 481.833333 505.753333 390.246667a21.333333 21.333333 0 0 0-30.173333 30.173333L567.166667 512 475.58 603.58a21.333333 21.333333 0 0 0 30.173333 30.173333L597.333333 542.166667l91.58 91.586666a21.333333 21.333333 0 0 0 30.173334 0z" fill="#ffffff" p-id="24351"></path></svg>